<svg width="16" height="16" viewBox="0 0 16 16" fill="none" xmlns="http://www.w3.org/2000/svg">
<path d="M4.5 5C5.05228 5 5.5 5.44772 5.5 6C5.5 6.55228 5.05228 7 4.5 7C3.94772 7 3.5 6.55228 3.5 6C3.5 5.44772 3.94772 5 4.5 5Z" fill="#9DA3AE"/>
<path d="M11.5 5C12.0523 5 12.5 5.44772 12.5 6C12.5 6.55228 12.0523 7 11.5 7C10.9477 7 10.5 6.55228 10.5 6C10.5 5.44772 10.9477 5 11.5 5Z" fill="#9DA3AE"/>
<path d="M8 5C8.55228 5 9 5.44772 9 6C9 6.55228 8.55228 7 8 7C7.44772 7 7 6.55228 7 6C7 5.44772 7.44771 5 8 5Z" fill="#9DA3AE"/>
<path fill-rule="evenodd" clip-rule="evenodd" d="M3 0C1.34315 0 0 1.34315 0 3V13.7129C0 14.803 1.26091 15.409 2.1121 14.7281L5.52219 12H13C14.6569 12 16 10.6569 16 9V3C16 1.34315 14.6569 0 13 0H3ZM5.06617 10.7L1.3 13.7129L1.3 3C1.3 2.06112 2.06112 1.3 3 1.3H13C13.9389 1.3 14.7 2.06112 14.7 3V9C14.7 9.93888 13.9389 10.7 13 10.7H5.06617Z" fill="#9DA3AE"/>
</svg>
